<!DOCTYPE svg PUBLIC "-//W3C//DTD SVG 1.1//EN" "http://www.w3.org/Graphics/SVG/1.1/DTD/svg11.dtd">

<!-- Uploaded to: SVG Repo, www.svgrepo.com, Transformed by: SVG Repo Mixer Tools -->
<svg fill="#8E8E8E" version="1.1" id="Capa_1" xmlns="http://www.w3.org/2000/svg" xmlns:xlink="http://www.w3.org/1999/xlink" width="256px" height="256px" viewBox="0 0 449.18 449.18" xml:space="preserve" transform="rotate(45)" stroke="#8E8E8E" stroke-width="0.0044918200000000005" style="transform: rotate(45deg);">

<g id="SVGRepo_bgCarrier" stroke-width="0"/>

<g id="SVGRepo_tracerCarrier" stroke-linecap="round" stroke-linejoin="round" stroke="#CCCCCC" stroke-width="6.2885480000000005"/>

<g id="SVGRepo_iconCarrier"> <g> <path d="M424.433,237.277l-49.624-28.786v-9.422c0-6.268-5.08-11.348-11.348-11.348c-5.07,0-9.359,3.325-10.815,7.912 l-25.441-14.759v-11.144c0-6.268-5.08-11.348-11.349-11.348c-5.61,0-10.259,4.076-11.173,9.428l-28.66-16.626V67.681 c0-17.646-5.054-34.323-14.229-46.961C252.092,7.359,238.963,0,224.826,0c-14.137,0-27.266,7.358-36.968,20.72 c-9.176,12.638-14.229,29.315-14.229,46.961v83.232l-29.131,16.899c-0.914-5.352-5.562-9.428-11.173-9.428 c-6.268,0-11.348,5.08-11.348,11.348v11.144l-25.442,14.759c-1.456-4.587-5.746-7.912-10.815-7.912 c-6.268,0-11.348,5.08-11.348,11.348v9.422l-49.624,28.787c-2.313,1.342-3.737,3.812-3.737,6.486v35.539 c0,2.398,1.147,4.652,3.086,6.062c1.299,0.945,2.848,1.438,4.415,1.438c0.773,0,1.55-0.119,2.304-0.361l142.813-46.107v87.184 v23.725c0,1.832,0.059,3.742,0.169,5.713l-45.528,46.25c-1.381,1.402-2.155,3.293-2.155,5.262v19.495c0,4.143,3.358,7.5,7.5,7.5 h67.024c6.754,8.251,14.815,13.718,24.187,13.718c9.371,0,17.433-5.467,24.187-13.718h66.555c4.142,0,7.5-3.357,7.5-7.5v-19.495 c0-1.969-0.774-3.857-2.155-5.262L275.83,357.41c0.127-2.131,0.193-4.193,0.193-6.166V327.52v-87.031l142.343,45.955 c0.754,0.244,1.53,0.362,2.304,0.362c1.567,0,3.116-0.491,4.415-1.437c1.938-1.411,3.086-3.666,3.086-6.063v-35.539 C428.17,241.092,426.746,238.62,424.433,237.277z M173.158,224.724L36.012,269.002v-20.916l137.146-79.559V224.724L173.158,224.724 z M141.115,420.462v-8.923l35.085-35.644c0.083,0.439,0.159,0.875,0.246,1.314c0,0.002,0,0.004,0,0.005 c2.477,12.536,7.341,29.144,14.591,43.246L141.115,420.462L141.115,420.462z M224.826,434.18 c-11.835,0-27.251-27.418-33.664-59.872c0-0.001,0-0.002,0-0.003c-1.657-8.391-2.533-16.365-2.533-23.062v-23.725V67.681 c0-29.048,16.238-52.681,36.197-52.681c19.958,0,36.197,23.633,36.197,52.681v87.825v74.678v97.336v23.725 c0,6.699-0.875,14.673-2.531,23.062c0,0.001,0,0.002,0,0.003C252.077,406.762,236.661,434.18,224.826,434.18z M308.066,411.539 v8.923h-49.452c7.25-14.104,12.115-30.71,14.593-43.246c0-0.001,0-0.003,0-0.005c0.062-0.305,0.112-0.606,0.17-0.911 L308.066,411.539z M413.17,269.002l-137.146-44.278v-56.196l137.146,79.559V269.002z"/> </g> </g>

</svg>