<?xml version="1.0" standalone="no"?>
<!DOCTYPE svg PUBLIC "-//W3C//DTD SVG 20010904//EN"
 "http://www.w3.org/TR/2001/REC-SVG-20010904/DTD/svg10.dtd">
<svg version="1.0" xmlns="http://www.w3.org/2000/svg"
 width="24.000000pt" height="24.000000pt" viewBox="0 0 24.000000 24.000000"
 preserveAspectRatio="xMidYMid meet">

<g transform="translate(0.000000,24.000000) scale(0.100000,-0.100000)"
fill="#000000" stroke="none">
<path d="M96 224 c-3 -9 -6 -29 -6 -45 0 -25 -4 -29 -29 -29 -42 0 -61 -9 -61
-30 0 -21 19 -30 61 -30 26 0 29 -3 29 -32 0 -73 52 -77 58 -5 3 33 6 36 39
39 72 6 68 58 -4 58 -30 0 -33 3 -33 29 0 42 -9 61 -30 61 -10 0 -21 -7 -24
-16z m36 -46 c3 -43 3 -43 46 -46 23 -2 42 -7 42 -12 0 -5 -19 -10 -42 -12
-43 -3 -43 -3 -46 -45 -2 -24 -7 -43 -12 -43 -5 0 -10 19 -12 43 -3 42 -3 42
-45 45 -24 2 -43 7 -43 12 0 5 19 10 42 12 43 3 43 3 46 46 2 23 7 42 12 42 5
0 10 -19 12 -42z"/>
</g>
</svg>
