<svg xmlns="http://www.w3.org/2000/svg" width="15.171" height="17.338" viewBox="0 0 15.171 17.338">
  <path id="Icon_awesome-calendar-alt" data-name="Icon awesome-calendar-alt" d="M0,15.713a1.626,1.626,0,0,0,1.625,1.625h11.92a1.626,1.626,0,0,0,1.625-1.625V6.5H0ZM10.836,9.076a.408.408,0,0,1,.406-.406H12.6A.408.408,0,0,1,13,9.076V10.43a.408.408,0,0,1-.406.406H11.243a.408.408,0,0,1-.406-.406Zm0,4.335A.408.408,0,0,1,11.243,13H12.6A.408.408,0,0,1,13,13.41v1.355a.408.408,0,0,1-.406.406H11.243a.408.408,0,0,1-.406-.406ZM6.5,9.076a.408.408,0,0,1,.406-.406H8.263a.408.408,0,0,1,.406.406V10.43a.408.408,0,0,1-.406.406H6.908A.408.408,0,0,1,6.5,10.43Zm0,4.335A.408.408,0,0,1,6.908,13H8.263a.408.408,0,0,1,.406.406v1.355a.408.408,0,0,1-.406.406H6.908a.408.408,0,0,1-.406-.406ZM2.167,9.076a.408.408,0,0,1,.406-.406H3.928a.408.408,0,0,1,.406.406V10.43a.408.408,0,0,1-.406.406H2.574a.408.408,0,0,1-.406-.406Zm0,4.335A.408.408,0,0,1,2.574,13H3.928a.408.408,0,0,1,.406.406v1.355a.408.408,0,0,1-.406.406H2.574a.408.408,0,0,1-.406-.406ZM13.546,2.167H11.92V.542A.543.543,0,0,0,11.378,0H10.295a.543.543,0,0,0-.542.542V2.167H5.418V.542A.543.543,0,0,0,4.876,0H3.793a.543.543,0,0,0-.542.542V2.167H1.625A1.626,1.626,0,0,0,0,3.793V5.418H15.171V3.793A1.626,1.626,0,0,0,13.546,2.167Z" fill="#949494"/>
</svg>
