<svg xmlns="http://www.w3.org/2000/svg" width="12.19" height="16.238" viewBox="0 0 12.19 16.238">
  <g id="map-pin-black-icon" opacity="0.5">
    <path id="Path_3" data-name="Path 3" d="M9.054,14.043a11.714,11.714,0,0,1-2.565,2.122.362.362,0,0,1-.412.013A14.47,14.47,0,0,1,2.509,13a11.333,11.333,0,0,1-2.4-5.18A6.876,6.876,0,0,1,.97,2.97,5.965,5.965,0,0,1,2.3,1.5,6.468,6.468,0,0,1,6.364,0a5.726,5.726,0,0,1,3.859,1.575,5.687,5.687,0,0,1,1.029,1.254,7.684,7.684,0,0,1,.733,5.553,12.217,12.217,0,0,1-2.932,5.658v0ZM6.095,3.139A3.033,3.033,0,1,1,3.062,6.171,3.033,3.033,0,0,1,6.095,3.139Z" transform="translate(0 0.001)" fill-rule="evenodd"/>
  </g>
</svg>
